<svg width="254" height="73" viewBox="0 0 254 73" fill="none" xmlns="http://www.w3.org/2000/svg">
<path d="M114.04 13.24C113.112 11.288 111.768 9.784 110.008 8.728C108.248 7.64 106.2 7.096 103.864 7.096C101.528 7.096 99.416 7.64 97.528 8.728C95.672 9.784 94.2 11.32 93.112 13.336C92.056 15.32 91.528 17.624 91.528 20.248C91.528 22.872 92.056 25.176 93.112 27.16C94.2 29.144 95.672 30.68 97.528 31.768C99.416 32.824 101.528 33.352 103.864 33.352C107.128 33.352 109.816 32.376 111.928 30.424C114.04 28.472 115.272 25.832 115.624 22.504H102.28V18.952H120.28V22.312C120.024 25.064 119.16 27.592 117.688 29.896C116.216 32.168 114.28 33.976 111.88 35.32C109.48 36.632 106.808 37.288 103.864 37.288C100.76 37.288 97.928 36.568 95.368 35.128C92.808 33.656 90.776 31.624 89.272 29.032C87.8 26.44 87.064 23.512 87.064 20.248C87.064 16.984 87.8 14.056 89.272 11.464C90.776 8.84 92.808 6.808 95.368 5.368C97.928 3.896 100.76 3.16 103.864 3.16C107.416 3.16 110.552 4.04 113.272 5.8C116.024 7.56 118.024 10.04 119.272 13.24H114.04ZM128.311 6.424C127.479 6.424 126.775 6.136 126.199 5.56C125.623 4.984 125.335 4.28 125.335 3.448C125.335 2.616 125.623 1.912 126.199 1.336C126.775 0.759998 127.479 0.471998 128.311 0.471998C129.111 0.471998 129.783 0.759998 130.327 1.336C130.903 1.912 131.191 2.616 131.191 3.448C131.191 4.28 130.903 4.984 130.327 5.56C129.783 6.136 129.111 6.424 128.311 6.424ZM130.423 10.696V37H126.055V10.696H130.423ZM143.196 14.296V29.8C143.196 31.08 143.468 31.992 144.012 32.536C144.556 33.048 145.5 33.304 146.844 33.304H150.06V37H146.124C143.692 37 141.868 36.44 140.652 35.32C139.436 34.2 138.828 32.36 138.828 29.8V14.296H135.42V10.696H138.828V4.072H143.196V10.696H150.06V14.296H143.196ZM99.304 72.336C97.096 72.336 95.112 71.952 93.352 71.184C91.624 70.384 90.264 69.296 89.272 67.92C88.28 66.512 87.768 64.896 87.736 63.072H92.392C92.552 64.64 93.192 65.968 94.312 67.056C95.464 68.112 97.128 68.64 99.304 68.64C101.384 68.64 103.016 68.128 104.2 67.104C105.416 66.048 106.024 64.704 106.024 63.072C106.024 61.792 105.672 60.752 104.968 59.952C104.264 59.152 103.384 58.544 102.328 58.128C101.272 57.712 99.848 57.264 98.056 56.784C95.848 56.208 94.072 55.632 92.728 55.056C91.416 54.48 90.28 53.584 89.32 52.368C88.392 51.12 87.928 49.456 87.928 47.376C87.928 45.552 88.392 43.936 89.32 42.528C90.248 41.12 91.544 40.032 93.208 39.264C94.904 38.496 96.84 38.112 99.016 38.112C102.152 38.112 104.712 38.896 106.696 40.464C108.712 42.032 109.848 44.112 110.104 46.704H105.304C105.144 45.424 104.472 44.304 103.288 43.344C102.104 42.352 100.536 41.856 98.584 41.856C96.76 41.856 95.272 42.336 94.12 43.296C92.968 44.224 92.392 45.536 92.392 47.232C92.392 48.448 92.728 49.44 93.4 50.208C94.104 50.976 94.952 51.568 95.944 51.984C96.968 52.368 98.392 52.816 100.216 53.328C102.424 53.936 104.2 54.544 105.544 55.152C106.888 55.728 108.04 56.64 109 57.888C109.96 59.104 110.44 60.768 110.44 62.88C110.44 64.512 110.008 66.048 109.144 67.488C108.28 68.928 107 70.096 105.304 70.992C103.608 71.888 101.608 72.336 99.304 72.336ZM140.868 57.84C140.868 58.672 140.82 59.552 140.724 60.48H119.7C119.86 63.072 120.74 65.104 122.34 66.576C123.972 68.016 125.94 68.736 128.244 68.736C130.132 68.736 131.7 68.304 132.948 67.44C134.228 66.544 135.124 65.36 135.636 63.888H140.34C139.636 66.416 138.228 68.48 136.116 70.08C134.004 71.648 131.38 72.432 128.244 72.432C125.748 72.432 123.508 71.872 121.524 70.752C119.572 69.632 118.036 68.048 116.916 66C115.796 63.92 115.236 61.52 115.236 58.8C115.236 56.08 115.78 53.696 116.868 51.648C117.956 49.6 119.476 48.032 121.428 46.944C123.412 45.824 125.684 45.264 128.244 45.264C130.74 45.264 132.948 45.808 134.868 46.896C136.788 47.984 138.26 49.488 139.284 51.408C140.34 53.296 140.868 55.44 140.868 57.84ZM136.356 56.928C136.356 55.264 135.988 53.84 135.252 52.656C134.516 51.44 133.508 50.528 132.228 49.92C130.98 49.28 129.588 48.96 128.052 48.96C125.844 48.96 123.956 49.664 122.388 51.072C120.852 52.48 119.972 54.432 119.748 56.928H136.356ZM145.002 58.752C145.002 56.064 145.546 53.712 146.634 51.696C147.722 49.648 149.21 48.064 151.098 46.944C153.018 45.824 155.146 45.264 157.482 45.264C159.786 45.264 161.786 45.76 163.482 46.752C165.178 47.744 166.442 48.992 167.274 50.496V45.696H171.69V72H167.274V67.104C166.41 68.64 165.114 69.92 163.386 70.944C161.69 71.936 159.706 72.432 157.434 72.432C155.098 72.432 152.986 71.856 151.098 70.704C149.21 69.552 147.722 67.936 146.634 65.856C145.546 63.776 145.002 61.408 145.002 58.752ZM167.274 58.8C167.274 56.816 166.874 55.088 166.074 53.616C165.274 52.144 164.186 51.024 162.81 50.256C161.466 49.456 159.978 49.056 158.346 49.056C156.714 49.056 155.226 49.44 153.882 50.208C152.538 50.976 151.466 52.096 150.666 53.568C149.866 55.04 149.466 56.768 149.466 58.752C149.466 60.768 149.866 62.528 150.666 64.032C151.466 65.504 152.538 66.64 153.882 67.44C155.226 68.208 156.714 68.592 158.346 68.592C159.978 68.592 161.466 68.208 162.81 67.44C164.186 66.64 165.274 65.504 166.074 64.032C166.874 62.528 167.274 60.784 167.274 58.8ZM183.439 49.968C184.207 48.464 185.295 47.296 186.703 46.464C188.143 45.632 189.887 45.216 191.935 45.216V49.728H190.783C185.887 49.728 183.439 52.384 183.439 57.696V72H179.071V45.696H183.439V49.968ZM195.345 58.8C195.345 56.08 195.889 53.712 196.977 51.696C198.065 49.648 199.569 48.064 201.489 46.944C203.441 45.824 205.665 45.264 208.161 45.264C211.393 45.264 214.049 46.048 216.129 47.616C218.241 49.184 219.633 51.36 220.305 54.144H215.601C215.153 52.544 214.273 51.28 212.961 50.352C211.681 49.424 210.081 48.96 208.161 48.96C205.665 48.96 203.649 49.824 202.113 51.552C200.577 53.248 199.809 55.664 199.809 58.8C199.809 61.968 200.577 64.416 202.113 66.144C203.649 67.872 205.665 68.736 208.161 68.736C210.081 68.736 211.681 68.288 212.961 67.392C214.241 66.496 215.121 65.216 215.601 63.552H220.305C219.601 66.24 218.193 68.4 216.081 70.032C213.969 71.632 211.329 72.432 208.161 72.432C205.665 72.432 203.441 71.872 201.489 70.752C199.569 69.632 198.065 68.048 196.977 66C195.889 63.952 195.345 61.552 195.345 58.8ZM239.19 45.216C241.174 45.216 242.966 45.648 244.566 46.512C246.166 47.344 247.414 48.608 248.31 50.304C249.238 52 249.702 54.064 249.702 56.496V72H245.382V57.12C245.382 54.496 244.726 52.496 243.414 51.12C242.102 49.712 240.31 49.008 238.038 49.008C235.734 49.008 233.894 49.728 232.518 51.168C231.174 52.608 230.502 54.704 230.502 57.456V72H226.134V36.48H230.502V49.44C231.366 48.096 232.55 47.056 234.054 46.32C235.59 45.584 237.302 45.216 239.19 45.216Z" fill="white"/>
<circle cx="15" cy="18" r="15" fill="#6EDAA1"/>
<circle cx="53" cy="18" r="15" fill="#6EDAA1" fill-opacity="0.75"/>
<circle cx="53" cy="56" r="15" fill="#6EDAA1" fill-opacity="0.5"/>
<circle cx="15" cy="56" r="15" fill="#6EDAA1" fill-opacity="0.25"/>
</svg>
